<?xml version="1.0" encoding="UTF-8"?>
<svg id="Layer_1" data-name="Layer 1" xmlns="http://www.w3.org/2000/svg" xmlns:xlink="http://www.w3.org/1999/xlink" viewBox="0 0 425.2 425.2">
  <defs>
    <style>
      .cls-1 {
        fill: url(#linear-gradient);
      }

      .cls-1, .cls-2 {
        stroke-width: 0px;
      }

      .cls-2 {
        fill: none;
      }

      .cls-3 {
        clip-path: url(#clippath);
      }
    </style>
    <clipPath id="clippath">
      <path class="cls-2" d="M405.47,208.49l-53.97-31.16v18.66h-41.74c-2.94-14.05-8.06-27.28-15.07-39.17h36.74v-61.82h18.66l-31.16-53.97-31.16,53.97h18.66v36.82h-31.33c-2.24-2.18-4.58-4.27-6.99-6.27-.72-38-25.61-68.98-55.77-68.98s-54.83,30.71-55.76,68.48c-.02.01-.03.03-.05.04-2.62,2.13-5.13,4.38-7.55,6.73h-31.33v-36.82h18.66l-31.16-53.97-31.16,53.97h18.66v61.82h36.74c-7.02,11.89-12.14,25.12-15.08,39.17h-41.74v-18.66l-53.97,31.16,53.97,31.16v-18.66h38.94c-.25,15.51,2.27,30.7,7.45,44.81h-26.31v61.82h-18.66l31.16,53.97,31.16-53.97h-18.66v-36.82h14.1c14.77,21.77,35.85,35.97,59.97,40.23l.49.09,19.83-112.48,19.83,112.48.49-.09c24.12-4.25,45.2-18.45,59.97-40.23h14.09v36.82h-18.66l31.16,53.97,31.16-53.97h-18.66v-61.82h-26.31c5.17-14.11,7.7-29.31,7.45-44.81h38.94v18.66l53.97-31.16Z"/>
    </clipPath>
    <linearGradient id="linear-gradient" x1="51.04" y1="52.52" x2="393.04" y2="391.39" gradientUnits="userSpaceOnUse">
      <stop offset=".05" stop-color="#dd1265"/>
      <stop offset=".26" stop-color="#e4394f"/>
      <stop offset=".73" stop-color="#f89d1a"/>
      <stop offset=".84" stop-color="#fdb60d"/>
    </linearGradient>
  </defs>
  <g class="cls-3">
    <rect class="cls-1" width="425.2" height="425.2"/>
  </g>
</svg>